<svg width="136" height="80" viewBox="0 0 136 80" fill="none" xmlns="http://www.w3.org/2000/svg">
<path d="M132.084 3.55291C130.961 2.42666 129.626 1.53312 128.156 0.923468C126.686 0.313812 125.111 0 123.519 0C121.928 0 120.353 0.313812 118.883 0.923468C117.413 1.53312 116.078 2.42666 114.954 3.55291L67.8161 50.6911L20.6779 3.55291C18.4063 1.28132 15.3254 0.00514428 12.1128 0.00514428C8.90031 0.00514428 5.81934 1.28132 3.54775 3.55291C1.27615 5.82451 -7.14494e-07 8.90546 -7.14494e-07 12.118C-7.14494e-07 15.3305 1.27615 18.4114 3.54775 20.683L59.3118 76.4471C60.4358 77.5734 61.7708 78.4669 63.2405 79.0765C64.7102 79.6862 66.2857 80 67.8769 80C69.468 80 71.0435 79.6862 72.5132 79.0765C73.9829 78.4669 75.318 77.5734 76.4419 76.4471L132.206 20.683C136.823 16.0664 136.823 8.29104 132.084 3.55291Z" fill="black"/>
</svg>
