<svg width="48" height="80" viewBox="0 0 48 80" fill="none" xmlns="http://www.w3.org/2000/svg">
<path d="M45.0838 77.8953C45.748 77.2324 46.2749 76.4451 46.6344 75.5784C46.994 74.7116 47.179 73.7825 47.179 72.8441C47.179 71.9058 46.994 70.9766 46.6344 70.1099C46.2749 69.2431 45.748 68.4558 45.0838 67.793L17.2845 39.9938L45.0838 12.1945C46.4234 10.8549 47.176 9.03795 47.176 7.1434C47.176 5.24885 46.4234 3.43189 45.0838 2.09224C43.7441 0.752594 41.9272 2.17612e-07 40.0326 3.83239e-07C38.1381 5.48865e-07 36.3211 0.752595 34.9815 2.09224L2.09528 34.9784C1.43109 35.6413 0.904136 36.4286 0.544598 37.2953C0.185061 38.1621 1.05217e-06 39.0912 1.1342e-06 40.0296C1.21623e-06 40.9679 0.185061 41.8971 0.544599 42.7638C0.904136 43.6306 1.43109 44.4179 2.09528 45.0807L34.9815 77.9669C37.7041 80.6895 42.2895 80.6895 45.0838 77.8953Z" fill="#F8F8F8"/>
</svg>
