<svg width="25" height="23" viewBox="0 0 25 23" fill="none" xmlns="http://www.w3.org/2000/svg">
<path d="M23.6125 4.6C23.9665 4.60033 24.3071 4.71256 24.5645 4.91378C24.8219 5.11499 24.9769 5.39 24.9976 5.6826C25.0184 5.97521 24.9034 6.26334 24.6761 6.48811C24.4489 6.71288 24.1266 6.85733 23.775 6.89195L23.6125 6.9H23.5L22.2234 19.55C22.2235 20.43 21.8174 21.2767 21.0882 21.917C20.359 22.5573 19.3618 22.9426 18.3007 22.9943L18.0562 23H6.94376C4.72404 23 2.90993 21.5637 2.78769 19.8375L2.78075 19.6455L1.49865 6.9H1.38752C1.03348 6.89968 0.692946 6.78744 0.435503 6.58623C0.178061 6.38501 0.0231378 6.11 0.00238923 5.8174C-0.0183593 5.52479 0.0966324 5.23666 0.323869 5.01189C0.551106 4.78712 0.873436 4.64267 1.225 4.60805L1.38752 4.6H23.6125ZM9.72188 9.2C9.35348 9.2 9.00017 9.32116 8.73967 9.53683C8.47917 9.75249 8.33282 10.045 8.33282 10.35V17.25C8.33282 17.555 8.47917 17.8475 8.73967 18.0632C9.00017 18.2788 9.35348 18.4 9.72188 18.4C10.0903 18.4 10.4436 18.2788 10.7041 18.0632C10.9646 17.8475 11.1109 17.555 11.1109 17.25V10.35C11.1109 10.045 10.9646 9.75249 10.7041 9.53683C10.4436 9.32116 10.0903 9.2 9.72188 9.2ZM15.2781 9.2C14.9097 9.2 14.5564 9.32116 14.2959 9.53683C14.0354 9.75249 13.8891 10.045 13.8891 10.35V17.25C13.8891 17.555 14.0354 17.8475 14.2959 18.0632C14.5564 18.2788 14.9097 18.4 15.2781 18.4C15.6465 18.4 15.9998 18.2788 16.2603 18.0632C16.5208 17.8475 16.6672 17.555 16.6672 17.25V10.35C16.6672 10.045 16.5208 9.75249 16.2603 9.53683C15.9998 9.32116 15.6465 9.2 15.2781 9.2ZM15.2781 0C16.0149 0 16.7215 0.242321 17.2425 0.673654C17.7635 1.10499 18.0562 1.69 18.0562 2.3C18.0558 2.59311 17.9203 2.87504 17.6772 3.08817C17.4342 3.30131 17.102 3.42957 16.7486 3.44675C16.3952 3.46393 16.0471 3.36872 15.7756 3.1806C15.5041 2.99247 15.3297 2.72561 15.2878 2.43455L15.2781 2.3H9.72188L9.71216 2.43455C9.67034 2.72561 9.49586 2.99247 9.22437 3.1806C8.95287 3.36872 8.60485 3.46393 8.25142 3.44675C7.89798 3.42957 7.56581 3.30131 7.32276 3.08817C7.07972 2.87504 6.94415 2.59311 6.94376 2.3C6.94354 1.71974 7.20825 1.16085 7.68482 0.73537C8.16139 0.309891 8.81461 0.0492698 9.51352 0.00575013L9.72188 0H15.2781Z" fill="#2A2A2A"/>
</svg>
