<svg width="60" height="60" viewBox="0 0 60 60" fill="none" xmlns="http://www.w3.org/2000/svg">
<circle cx="30" cy="30" r="29" fill="white" fill-opacity="0.5" stroke="black" stroke-width="2"/>
<path d="M20.6348 34H16.9141V25.3633H20.6348C21.1699 25.3711 21.6152 25.4336 21.9707 25.5508C22.5762 25.75 23.0664 26.1152 23.4414 26.6465C23.7422 27.0762 23.9473 27.541 24.0566 28.041C24.166 28.541 24.2207 29.0176 24.2207 29.4707C24.2207 30.6191 23.9902 31.5918 23.5293 32.3887C22.9043 33.4629 21.9395 34 20.6348 34ZM21.9766 27.5664C21.6992 27.0977 21.1504 26.8633 20.3301 26.8633H18.666V32.5H20.3301C21.1816 32.5 21.7754 32.0801 22.1113 31.2402C22.2949 30.7793 22.3867 30.2305 22.3867 29.5938C22.3867 28.7148 22.25 28.0391 21.9766 27.5664ZM28.6621 29.1543C27.9902 29.1543 27.5391 29.373 27.3086 29.8105C27.1797 30.0566 27.1152 30.4355 27.1152 30.9473V34H25.4336V27.6133H27.0273V28.7266C27.2852 28.3008 27.5098 28.0098 27.7012 27.8535C28.0137 27.5918 28.4199 27.4609 28.9199 27.4609C28.9512 27.4609 28.9766 27.4629 28.9961 27.4668C29.0195 27.4668 29.0684 27.4688 29.1426 27.4727V29.1836C29.0371 29.1719 28.9434 29.1641 28.8613 29.1602C28.7793 29.1562 28.7129 29.1543 28.6621 29.1543ZM30.3672 28.3047C30.8086 27.7422 31.5664 27.4609 32.6406 27.4609C33.3398 27.4609 33.9609 27.5996 34.5039 27.877C35.0469 28.1543 35.3184 28.6777 35.3184 29.4473V32.377C35.3184 32.5801 35.3223 32.8262 35.3301 33.1152C35.3418 33.334 35.375 33.4824 35.4297 33.5605C35.4844 33.6387 35.5664 33.7031 35.6758 33.7539V34H33.8594C33.8086 33.8711 33.7734 33.75 33.7539 33.6367C33.7344 33.5234 33.7188 33.3945 33.707 33.25C33.4766 33.5 33.2109 33.7129 32.9102 33.8887C32.5508 34.0957 32.1445 34.1992 31.6914 34.1992C31.1133 34.1992 30.6348 34.0352 30.2559 33.707C29.8809 33.375 29.6934 32.9062 29.6934 32.3008C29.6934 31.5156 29.9961 30.9473 30.6016 30.5957C30.9336 30.4043 31.4219 30.2676 32.0664 30.1855L32.6348 30.1152C32.9434 30.0762 33.1641 30.0273 33.2969 29.9688C33.5352 29.8672 33.6543 29.709 33.6543 29.4941C33.6543 29.2324 33.5625 29.0527 33.3789 28.9551C33.1992 28.8535 32.9336 28.8027 32.582 28.8027C32.1875 28.8027 31.9082 28.9004 31.7441 29.0957C31.627 29.2402 31.5488 29.4355 31.5098 29.6816H29.8984C29.9336 29.123 30.0898 28.6641 30.3672 28.3047ZM31.6094 32.793C31.7656 32.9219 31.957 32.9863 32.1836 32.9863C32.543 32.9863 32.873 32.8809 33.1738 32.6699C33.4785 32.459 33.6367 32.0742 33.6484 31.5156V30.8945C33.543 30.9609 33.4355 31.0156 33.3262 31.0586C33.2207 31.0977 33.0742 31.1348 32.8867 31.1699L32.5117 31.2402C32.1602 31.3027 31.9082 31.3789 31.7559 31.4688C31.498 31.6211 31.3691 31.8574 31.3691 32.1777C31.3691 32.4629 31.4492 32.668 31.6094 32.793ZM38.6113 35.1191C38.791 35.2715 39.0938 35.3477 39.5195 35.3477C40.1211 35.3477 40.5234 35.1465 40.7266 34.7441C40.8594 34.4863 40.9258 34.0527 40.9258 33.4434V33.0332C40.7656 33.3066 40.5938 33.5117 40.4102 33.6484C40.0781 33.9023 39.6465 34.0293 39.1152 34.0293C38.2949 34.0293 37.6387 33.7422 37.1465 33.168C36.6582 32.5898 36.4141 31.8086 36.4141 30.8242C36.4141 29.875 36.6504 29.0781 37.123 28.4336C37.5957 27.7852 38.2656 27.4609 39.1328 27.4609C39.4531 27.4609 39.7324 27.5098 39.9707 27.6074C40.377 27.7754 40.7051 28.084 40.9551 28.5332V27.6133H42.5781V33.6719C42.5781 34.4961 42.4395 35.1172 42.1621 35.5352C41.6855 36.2539 40.7715 36.6133 39.4199 36.6133C38.6035 36.6133 37.9375 36.4531 37.4219 36.1328C36.9062 35.8125 36.6211 35.334 36.5664 34.6973H38.3828C38.4297 34.8926 38.5059 35.0332 38.6113 35.1191ZM38.3301 31.8203C38.5566 32.3594 38.9629 32.6289 39.5488 32.6289C39.9395 32.6289 40.2695 32.4824 40.5391 32.1895C40.8086 31.8926 40.9434 31.4219 40.9434 30.7773C40.9434 30.1719 40.8145 29.7109 40.5566 29.3945C40.3027 29.0781 39.9609 28.9199 39.5312 28.9199C38.9453 28.9199 38.541 29.1953 38.3184 29.7461C38.2012 30.0391 38.1426 30.4004 38.1426 30.8301C38.1426 31.2012 38.2051 31.5312 38.3301 31.8203Z" fill="black"/>
</svg>
