<svg width="126" height="80" viewBox="0 0 126 80" fill="none" xmlns="http://www.w3.org/2000/svg">
<path fill-rule="evenodd" clip-rule="evenodd" d="M0 40C11.5886 16.2743 35.3829 0 62.8571 0C90.3314 0 114.126 16.2743 125.714 40C114.126 63.7257 90.3314 80 62.8571 80C35.3829 80 11.5886 63.7257 0 40ZM62.8571 60C65.4836 60 68.0843 59.4827 70.5108 58.4776C72.9373 57.4725 75.1421 55.9993 76.9993 54.1421C78.8565 52.285 80.3296 50.0802 81.3347 47.6537C82.3398 45.2272 82.8571 42.6264 82.8571 40C82.8571 37.3736 82.3398 34.7728 81.3347 32.3463C80.3296 29.9198 78.8565 27.715 76.9993 25.8579C75.1421 24.0007 72.9373 22.5275 70.5108 21.5224C68.0843 20.5173 65.4836 20 62.8571 20C57.5528 20 52.4657 22.1071 48.715 25.8579C44.9643 29.6086 42.8571 34.6957 42.8571 40C42.8571 45.3043 44.9643 50.3914 48.715 54.1421C52.4657 57.8929 57.5528 60 62.8571 60Z" fill="#C8C8C8"/>
</svg>
