<svg width="135" height="80" viewBox="0 0 135 80" fill="none" xmlns="http://www.w3.org/2000/svg">
<path d="M6.31579 0H128.421C130.096 0 131.703 0.665411 132.887 1.84985C134.071 3.03429 134.737 4.64074 134.737 6.31579C134.737 7.99084 134.071 9.59729 132.887 10.7817C131.703 11.9662 130.096 12.6316 128.421 12.6316H6.31579C4.64074 12.6316 3.03429 11.9662 1.84985 10.7817C0.665412 9.59729 0 7.99084 0 6.31579C0 4.64074 0.665412 3.03429 1.84985 1.84985C3.03429 0.665411 4.64074 0 6.31579 0ZM25.2632 40C25.2632 38.3249 25.9286 36.7185 27.113 35.5341C28.2975 34.3496 29.9039 33.6842 31.5789 33.6842H103.158C104.833 33.6842 106.439 34.3496 107.624 35.5341C108.808 36.7185 109.474 38.3249 109.474 40C109.474 41.6751 108.808 43.2815 107.624 44.4659C106.439 45.6504 104.833 46.3158 103.158 46.3158H31.5789C29.9039 46.3158 28.2975 45.6504 27.113 44.4659C25.9286 43.2815 25.2632 41.6751 25.2632 40ZM50.5263 73.6842C50.5263 72.0092 51.1917 70.4027 52.3762 69.2183C53.5606 68.0338 55.1671 67.3684 56.8421 67.3684H77.8947C79.5698 67.3684 81.1762 68.0338 82.3607 69.2183C83.5451 70.4027 84.2105 72.0092 84.2105 73.6842C84.2105 75.3593 83.5451 76.9657 82.3607 78.1501C81.1762 79.3346 79.5698 80 77.8947 80H56.8421C55.1671 80 53.5606 79.3346 52.3762 78.1501C51.1917 76.9657 50.5263 75.3593 50.5263 73.6842Z" fill="black"/>
</svg>
