<svg width="74" height="81" viewBox="0 0 74 81" fill="none" xmlns="http://www.w3.org/2000/svg">
<path d="M36.9626 0.439304C46.7657 0.439304 56.1672 4.20075 63.0991 10.8962C70.0309 17.5916 73.9252 26.6725 73.9252 36.1413C73.9252 48.3355 67.0419 58.3162 59.789 65.4764C56.1653 69.0152 52.2114 72.2234 47.9774 75.0604L46.2279 76.2108L45.4065 76.7384L43.8582 77.6905L42.4782 78.5037L40.7697 79.4637C39.6101 80.103 38.2979 80.4393 36.9626 80.4393C35.6273 80.4393 34.3151 80.103 33.1554 79.4637L31.4469 78.5037L29.3113 77.2343L28.5228 76.7384L26.8389 75.6555C22.2713 72.6705 18.0168 69.2612 14.1361 65.4764C6.88325 58.3122 0 48.3355 0 36.1413C0 26.6725 3.89426 17.5916 10.8261 10.8962C17.7579 4.20075 27.1595 0.439304 36.9626 0.439304ZM36.9626 24.2406C35.3446 24.2406 33.7424 24.5485 32.2476 25.1465C30.7528 25.7446 29.3945 26.6212 28.2504 27.7263C27.1063 28.8313 26.1988 30.1433 25.5796 31.5871C24.9604 33.031 24.6417 34.5785 24.6417 36.1413C24.6417 37.7041 24.9604 39.2516 25.5796 40.6955C26.1988 42.1393 27.1063 43.4513 28.2504 44.5563C29.3945 45.6614 30.7528 46.538 32.2476 47.1361C33.7424 47.7341 35.3446 48.042 36.9626 48.042C40.2303 48.042 43.3641 46.7882 45.6747 44.5563C47.9854 42.3245 49.2834 39.2975 49.2834 36.1413C49.2834 32.985 47.9854 29.9581 45.6747 27.7263C43.3641 25.4944 40.2303 24.2406 36.9626 24.2406Z" fill="black"/>
</svg>
