<svg width="101" height="81" viewBox="0 0 101 81" fill="none" xmlns="http://www.w3.org/2000/svg">
<path d="M10.7059 80.7647C7.95587 80.7647 5.60254 79.7864 3.64587 77.8297C1.68921 75.873 0.709205 73.518 0.705872 70.7647V10.7647C0.705872 8.0147 1.68587 5.66137 3.64587 3.7047C5.60587 1.74804 7.9592 0.768039 10.7059 0.764706H90.7059C93.4559 0.764706 95.8109 1.7447 97.7709 3.7047C99.7309 5.6647 100.709 8.01804 100.706 10.7647V70.7647C100.706 73.5147 99.7275 75.8697 97.7709 77.8297C95.8142 79.7897 93.4592 80.768 90.7059 80.7647H10.7059ZM50.7059 45.7647L90.7059 20.7647V10.7647L50.7059 35.7647L10.7059 10.7647V20.7647L50.7059 45.7647Z" fill="white"/>
</svg>
