<svg width="120" height="80" viewBox="0 0 120 80" fill="none" xmlns="http://www.w3.org/2000/svg">
<path d="M6.66667 80H113.333C117 80 120 77 120 73.3333C120 69.6667 117 66.6667 113.333 66.6667H6.66667C3 66.6667 0 69.6667 0 73.3333C0 77 3 80 6.66667 80ZM6.66667 46.6667H113.333C117 46.6667 120 43.6667 120 40C120 36.3333 117 33.3333 113.333 33.3333H6.66667C3 33.3333 0 36.3333 0 40C0 43.6667 3 46.6667 6.66667 46.6667ZM0 6.66667C0 10.3333 3 13.3333 6.66667 13.3333H113.333C117 13.3333 120 10.3333 120 6.66667C120 3 117 0 113.333 0H6.66667C3 0 0 3 0 6.66667Z" fill="black"/>
</svg>
