<svg width="89" height="80" viewBox="0 0 89 80" fill="none" xmlns="http://www.w3.org/2000/svg">
<path d="M8.66667 80V22.6667L0 3.77778L8 0L18.4444 22.4444H70L80.4444 0L88.4444 3.77778L79.7778 22.6667V80H8.66667ZM35.3333 48.8889H53.1111C54.3704 48.8889 55.4267 48.4622 56.28 47.6089C57.1333 46.7556 57.5585 45.7007 57.5556 44.4444C57.5526 43.1882 57.1259 42.1333 56.2756 41.28C55.4252 40.4267 54.3704 40 53.1111 40H35.3333C34.0741 40 33.0193 40.4267 32.1689 41.28C31.3185 42.1333 30.8918 43.1882 30.8889 44.4444C30.8859 45.7007 31.3126 46.757 32.1689 47.6133C33.0252 48.4696 34.08 48.8948 35.3333 48.8889Z" fill="#C8C8C8"/>
</svg>
