<svg width="80" height="80" viewBox="0 0 80 80" fill="none" xmlns="http://www.w3.org/2000/svg">
<path d="M75.3333 80C66.0741 80 56.9259 77.9822 47.8889 73.9467C38.8519 69.9111 30.6296 64.1881 23.2222 56.7778C15.8148 49.3674 10.0933 41.1452 6.05778 32.1111C2.02222 23.077 0.00296296 13.9289 0 4.66667C0 3.33333 0.444444 2.22222 1.33333 1.33333C2.22222 0.444444 3.33333 0 4.66667 0H22.6667C23.7037 0 24.6296 0.352592 25.4444 1.05778C26.2593 1.76296 26.7407 2.59556 26.8889 3.55556L29.7778 19.1111C29.9259 20.2963 29.8889 21.2963 29.6667 22.1111C29.4444 22.9259 29.037 23.6296 28.4444 24.2222L17.6667 35.1111C19.1481 37.8519 20.9067 40.4993 22.9422 43.0533C24.9778 45.6074 27.2193 48.0711 29.6667 50.4445C31.963 52.7407 34.3704 54.8711 36.8889 56.8356C39.4074 58.8 42.0741 60.5956 44.8889 62.2222L55.3333 51.7778C56 51.1111 56.8711 50.6119 57.9467 50.28C59.0222 49.9482 60.077 49.8548 61.1111 50L76.4445 53.1111C77.4815 53.4074 78.3333 53.9452 79 54.7244C79.6667 55.5037 80 56.3733 80 57.3333V75.3333C80 76.6667 79.5556 77.7778 78.6667 78.6667C77.7778 79.5556 76.6667 80 75.3333 80Z" fill="white"/>
</svg>
