<svg width="80" height="80" viewBox="0 0 80 80" fill="none" xmlns="http://www.w3.org/2000/svg">
<path d="M57.1755 50.3145H53.562L52.2813 49.0795C56.9191 43.7007 59.468 36.8334 59.4625 29.7313C59.4625 23.851 57.7188 18.1027 54.4519 13.2135C51.185 8.32418 46.5416 4.51345 41.1089 2.26316C35.6763 0.0128716 29.6983 -0.575907 23.931 0.571281C18.1637 1.71847 12.8661 4.5501 8.70809 8.70809C4.5501 12.8661 1.71847 18.1637 0.571281 23.931C-0.575907 29.6983 0.0128716 35.6763 2.26316 41.1089C4.51345 46.5416 8.32418 51.185 13.2135 54.4519C18.1027 57.7188 23.851 59.4625 29.7313 59.4625C37.0955 59.4625 43.8651 56.7639 49.0795 52.2813L50.3145 53.562V57.1755L73.1847 80L80 73.1847L57.1755 50.3145ZM29.7313 50.3145C18.3419 50.3145 9.14809 41.1206 9.14809 29.7313C9.14809 18.3419 18.3419 9.14809 29.7313 9.14809C41.1206 9.14809 50.3145 18.3419 50.3145 29.7313C50.3145 41.1206 41.1206 50.3145 29.7313 50.3145Z" fill="black"/>
</svg>
