<svg width="84" height="80" viewBox="0 0 84 80" fill="none" xmlns="http://www.w3.org/2000/svg">
<path d="M27.5758 24.1521L3.26355 27.677L2.83294 27.7646C2.18108 27.9377 1.58682 28.2806 1.11086 28.7584C0.634892 29.2363 0.294268 29.8319 0.123773 30.4844C-0.0467227 31.1369 -0.040982 31.823 0.140408 32.4726C0.321799 33.1222 0.672339 33.712 1.15623 34.1818L18.7693 51.3261L14.6156 75.5431L14.5661 75.9623C14.5262 76.6365 14.6662 77.3092 14.9717 77.9115C15.2773 78.5138 15.7374 79.024 16.305 79.39C16.8726 79.756 17.5273 79.9646 18.202 79.9944C18.8768 80.0242 19.5473 79.8741 20.1449 79.5596L41.8888 68.1275L63.583 79.5596L63.9641 79.7349C64.5931 79.9826 65.2767 80.0586 65.9447 79.955C66.6128 79.8513 67.2412 79.5719 67.7656 79.1452C68.29 78.7186 68.6915 78.1601 68.9288 77.5271C69.1661 76.8941 69.2308 76.2093 69.1162 75.5431L64.9587 51.3261L82.5794 34.178L82.8766 33.8541C83.3012 33.3311 83.5796 32.705 83.6834 32.0394C83.7872 31.3739 83.7127 30.6927 83.4676 30.0652C83.2224 29.4378 82.8153 28.8866 82.2878 28.4677C81.7602 28.0489 81.1311 27.7773 80.4644 27.6808L56.1522 24.1521L45.2841 2.12625C44.9696 1.48809 44.4828 0.950709 43.8787 0.574934C43.2746 0.19916 42.5773 0 41.8659 0C41.1545 0 40.4572 0.19916 39.8531 0.574934C39.249 0.950709 38.7622 1.48809 38.4477 2.12625L27.5758 24.1521Z" fill="#FFE100"/>
</svg>
