<svg width="39" height="39" viewBox="0 0 39 39" fill="none" xmlns="http://www.w3.org/2000/svg">
<path fill-rule="evenodd" clip-rule="evenodd" d="M14.6254 2.4375C14.6254 1.79103 14.8822 1.17105 15.3393 0.713927C15.7964 0.256807 16.4164 0 17.0629 0L21.9379 0C22.5844 0 23.2044 0.256807 23.6615 0.713927C24.1186 1.17105 24.3754 1.79103 24.3754 2.4375C24.3754 3.08397 24.1186 3.70395 23.6615 4.16107C23.2044 4.61819 22.5844 4.875 21.9379 4.875V5.04562C24.3824 5.39902 26.721 6.27891 28.7922 7.6245L31.0054 5.41125C31.1728 5.23164 31.3746 5.08758 31.5988 4.98766C31.8231 4.88774 32.0652 4.83401 32.3106 4.82968C32.5561 4.82535 32.7999 4.87051 33.0275 4.96245C33.2552 5.0544 33.462 5.19125 33.6356 5.36484C33.8092 5.53844 33.946 5.74522 34.0379 5.97286C34.1299 6.20049 34.175 6.44431 34.1707 6.68977C34.1664 6.93524 34.1127 7.17731 34.0127 7.40156C33.9128 7.62581 33.7688 7.82764 33.5891 7.995L31.6391 9.945C34.3359 12.676 36.033 16.2365 36.4564 20.0512C36.8798 23.8658 36.0047 27.7118 33.9725 30.9677C31.9404 34.2237 28.8698 36.6993 25.2569 37.9947C21.644 39.2901 17.6999 39.3296 14.0619 38.1068C10.4238 36.884 7.30428 34.4703 5.20733 31.2557C3.11037 28.0411 2.15847 24.2134 2.50543 20.391C2.85239 16.5686 4.47795 12.9749 7.11945 10.1904C9.76096 7.40595 13.2641 5.5934 17.0629 5.04562V4.875C16.4164 4.875 15.7964 4.61819 15.3393 4.16107C14.8822 3.70395 14.6254 3.08397 14.6254 2.4375ZM32.9066 21.9375C32.9066 25.4931 31.4942 28.903 28.9801 31.4172C26.4659 33.9313 23.056 35.3438 19.5004 35.3438C15.9448 35.3438 12.5349 33.9313 10.0207 31.4172C7.50659 28.903 6.09415 25.4931 6.09415 21.9375C6.09415 18.3819 7.50659 14.972 10.0207 12.4578C12.5349 9.94369 15.9448 8.53125 19.5004 8.53125C23.056 8.53125 26.4659 9.94369 28.9801 12.4578C31.4942 14.972 32.9066 18.3819 32.9066 21.9375ZM21.3285 14.0156C21.3285 13.5308 21.1359 13.0658 20.7931 12.7229C20.4502 12.3801 19.9852 12.1875 19.5004 12.1875C19.0155 12.1875 18.5506 12.3801 18.2077 12.7229C17.8649 13.0658 17.6723 13.5308 17.6723 14.0156V22.6931L18.2085 23.2294L23.7027 28.7235C23.87 28.9031 24.0718 29.0472 24.2961 29.1471C24.5203 29.247 24.7624 29.3007 25.0079 29.3051C25.2533 29.3094 25.4972 29.2642 25.7248 29.1723C25.9524 29.0804 26.1592 28.9435 26.3328 28.7699C26.5064 28.5963 26.6433 28.3895 26.7352 28.1619C26.8271 27.9343 26.8723 27.6904 26.868 27.445C26.8636 27.1995 26.8099 26.9574 26.71 26.7332C26.6101 26.5089 26.466 26.3071 26.2864 26.1397L21.3285 21.1794V14.0156Z" fill="#D00000"/>
</svg>
