<svg width="68" height="68" viewBox="0 0 68 68" fill="none" xmlns="http://www.w3.org/2000/svg">
<path d="M48.1668 22.6667H56.6668L65.1668 34.1587V51H59.401C59.0599 53.3605 57.8797 55.519 56.0766 57.0802C54.2736 58.6413 51.9685 59.5006 49.5835 59.5006C47.1985 59.5006 44.8934 58.6413 43.0903 57.0802C41.2873 55.519 40.1071 53.3605 39.766 51H25.401C25.0642 53.3638 23.8858 55.5268 22.0823 57.0915C20.2787 58.6563 17.9712 59.5178 15.5835 59.5178C13.1958 59.5178 10.8883 58.6563 9.08474 57.0915C7.28122 55.5268 6.10282 53.3638 5.766 51H2.8335V17C2.8335 16.2486 3.13201 15.5279 3.66336 14.9965C4.19471 14.4652 4.91538 14.1667 5.66683 14.1667H45.3335C46.0849 14.1667 46.8056 14.4652 47.337 14.9965C47.8683 15.5279 48.1668 16.2486 48.1668 17V22.6667ZM48.1668 28.3333V36.8333H59.5002V36.0258L53.8108 28.3333H48.1668Z" fill="black"/>
</svg>
