<svg width="80" height="80" viewBox="0 0 80 80" fill="none" xmlns="http://www.w3.org/2000/svg">
<path d="M67.9998 11.6402C64.3321 7.93662 59.9639 5.00007 55.1499 3.00166C50.3359 1.00325 45.1722 -0.0170526 39.9599 0.00021558C18.12 0.00021558 0.32 17.8002 0.32 39.6401C0.32 46.6401 2.15999 53.4401 5.59999 59.4401L0 80L20.9999 74.48C26.7999 77.64 33.3199 79.32 39.9599 79.32C61.7998 79.32 79.5998 61.5201 79.5998 39.6801C79.5998 29.0801 75.4798 19.1202 67.9998 11.6402ZM39.9599 72.6C34.0399 72.6 28.2399 71 23.1599 68L21.9599 67.28L9.47998 70.56L12.8 58.4001L12 57.1601C8.71017 51.9083 6.96368 45.8372 6.95998 39.6401C6.95998 21.4802 21.7599 6.6802 39.9199 6.6802C48.7199 6.6802 56.9999 10.1202 63.1998 16.3602C66.2703 19.4156 68.7035 23.0503 70.3583 27.0535C72.0131 31.0566 72.8566 35.3485 72.8398 39.6801C72.9198 57.8401 58.1198 72.6 39.9599 72.6ZM58.0398 47.9601C57.0399 47.4801 52.1599 45.0801 51.2799 44.7201C50.3599 44.4001 49.7199 44.2401 49.0399 45.2001C48.3599 46.2001 46.4799 48.4401 45.9199 49.0801C45.3599 49.7601 44.7599 49.8401 43.7599 49.3201C42.7599 48.8401 39.5599 47.7601 35.7999 44.4001C32.8399 41.7601 30.8799 38.5201 30.2799 37.5201C29.7199 36.5201 30.1999 36.0001 30.7199 35.4801C31.1599 35.0401 31.7199 34.3201 32.1999 33.7601C32.6799 33.2001 32.8799 32.7601 33.1999 32.1201C33.5199 31.4401 33.3599 30.8801 33.1199 30.4001C32.8799 29.9201 30.8799 25.0401 30.0799 23.0402C29.2799 21.1202 28.4399 21.3602 27.8399 21.3202H25.9199C25.2399 21.3202 24.1999 21.5602 23.2799 22.5602C22.3999 23.5602 19.8399 25.9601 19.8399 30.8401C19.8399 35.7201 23.3999 40.4401 23.8799 41.0801C24.3599 41.7601 30.8799 51.7601 40.7999 56.0401C43.1599 57.0801 44.9999 57.6801 46.4399 58.1201C48.7999 58.8801 50.9599 58.7601 52.6799 58.5201C54.5999 58.2401 58.5598 56.1201 59.3598 53.8001C60.1998 51.4801 60.1998 49.5201 59.9198 49.0801C59.6398 48.6401 59.0398 48.4401 58.0398 47.9601Z" fill="#0DFF00"/>
</svg>
